<svg xml:space="preserve" style="enable-background:new 0 0 202.85 23.02;" viewBox="0 0 202.85 23.02" y="0px" x="0px" xmlns:xlink="http://www.w3.org/1999/xlink" xmlns="http://www.w3.org/2000/svg" id="Layer_1" version="1.1">
<style type="text/css">
	.st0{fill:#034EA2;}
	.st1{fill:#ED1C24;}
	.st2{fill:#231F20;}
</style>
<g>
	<g>
		<g>
			<g>
				<polygon points="32.36,0.95 30.22,0.81 24.41,8.04 18.21,0.08 11.6,0.08 11.6,0.97 13.36,0.97 20.86,10.63 
					20.86,16.66 8.01,0.08 1.44,0.08 1.44,0.97 3.18,0.97 3.2,0.97 3.2,19.05 1.42,19.05 1.42,19.94 6.72,19.94 6.72,19.05 
					4.97,19.05 4.97,3.25 17.89,19.94 25.28,19.94 25.28,9.77" class="st0"></polygon>
				<path d="M43.43,5.85c0-4.52-4.97-5.72-8.49-5.77l0,0h-0.09c-0.05,0-0.09,0-0.14,0h-6.97v0.89h6.8
					c1.25,0.13,2.77,0.85,3.66,2.16c0.5,0.73,0.82,1.62,0.81,2.73c-0.03,3.17-2.8,4.9-5.08,4.79H29.7v0.18h0v9.11h6.18v-0.89h-1.77
					v-7.52C38.38,11.37,43.42,10.37,43.43,5.85z" class="st1"></path>
			</g>
		</g>
	</g>
	<g>
		<g>
			<g>
				<g>
					<path d="M64.56,5.67c0.36,0.22,0.88,0.41,1.44,0.41c0.82,0,1.3-0.43,1.3-1.06c0-0.58-0.33-0.91-1.17-1.24
						c-1.01-0.36-1.64-0.89-1.64-1.76c0-0.97,0.8-1.69,2.01-1.69c0.64,0,1.1,0.15,1.37,0.3l-0.22,0.65C67.45,1.18,67.03,1,66.47,1
						C65.62,1,65.3,1.5,65.3,1.93c0,0.58,0.38,0.87,1.24,1.2c1.05,0.41,1.59,0.91,1.59,1.83c0,0.96-0.71,1.79-2.18,1.79
						c-0.6,0-1.25-0.18-1.59-0.4L64.56,5.67z" class="st2"></path>
					<path d="M72.42,6.48c-0.21,0.11-0.68,0.26-1.28,0.26c-1.35,0-2.22-0.91-2.22-2.28c0-1.37,0.94-2.37,2.4-2.37
						c0.48,0,0.9,0.12,1.13,0.23l-0.18,0.63c-0.19-0.11-0.5-0.21-0.94-0.21c-1.02,0-1.58,0.76-1.58,1.69c0,1.03,0.66,1.67,1.55,1.67
						c0.46,0,0.77-0.12,1-0.22L72.42,6.48z" class="st2"></path>
					<path d="M73.34,0.1h0.81v2.78h0.02c0.13-0.23,0.33-0.43,0.58-0.57c0.24-0.14,0.53-0.23,0.83-0.23
						c0.6,0,1.56,0.37,1.56,1.91v2.66h-0.81V4.08c0-0.72-0.27-1.33-1.03-1.33c-0.53,0-0.94,0.37-1.09,0.81
						c-0.05,0.11-0.06,0.23-0.06,0.39v2.69h-0.81V0.1z" class="st2"></path>
					<path d="M82.53,4.38c0,1.65-1.14,2.37-2.22,2.37c-1.21,0-2.14-0.89-2.14-2.3c0-1.49,0.98-2.37,2.21-2.37
						C81.67,2.08,82.53,3.01,82.53,4.38z M78.99,4.43c0,0.98,0.56,1.71,1.36,1.71c0.77,0,1.36-0.73,1.36-1.73
						c0-0.76-0.38-1.72-1.34-1.72C79.41,2.69,78.99,3.58,78.99,4.43z" class="st2"></path>
					<path d="M87.69,4.38c0,1.65-1.14,2.37-2.22,2.37c-1.21,0-2.14-0.89-2.14-2.3c0-1.49,0.98-2.37,2.21-2.37
						C86.82,2.08,87.69,3.01,87.69,4.38z M84.15,4.43c0,0.98,0.56,1.71,1.36,1.71c0.77,0,1.36-0.73,1.36-1.73
						c0-0.76-0.38-1.72-1.34-1.72C84.56,2.69,84.15,3.58,84.15,4.43z" class="st2"></path>
					<path d="M88.77,0.1h0.81v6.55h-0.81V0.1z" class="st2"></path>
					<path d="M97.12,4.38c0,1.65-1.14,2.37-2.22,2.37c-1.21,0-2.14-0.89-2.14-2.3c0-1.49,0.98-2.37,2.21-2.37
						C96.26,2.08,97.12,3.01,97.12,4.38z M93.58,4.43c0,0.98,0.56,1.71,1.36,1.71c0.77,0,1.36-0.73,1.36-1.73
						c0-0.76-0.38-1.72-1.34-1.72C94,2.69,93.58,3.58,93.58,4.43z" class="st2"></path>
					<path d="M98.24,6.65V2.8h-0.63V2.19h0.63V1.97c0-0.63,0.14-1.2,0.52-1.56C99.06,0.12,99.46,0,99.84,0
						c0.29,0,0.53,0.06,0.69,0.13l-0.11,0.63c-0.12-0.06-0.29-0.1-0.52-0.1c-0.69,0-0.87,0.61-0.87,1.29v0.24h1.08V2.8h-1.08v3.84
						H98.24z" class="st2"></path>
					<path d="M65.89,10.48v9.45h-1.22v-9.45H65.89z" class="st2"></path>
					<path d="M67.82,14.98c0-0.7-0.01-1.28-0.06-1.84h1.09l0.07,1.12h0.03c0.34-0.64,1.12-1.28,2.24-1.28
						c0.94,0,2.4,0.56,2.4,2.89v4.05h-1.23v-3.91c0-1.09-0.41-2-1.57-2c-0.81,0-1.44,0.57-1.65,1.26c-0.06,0.15-0.08,0.36-0.08,0.57
						v4.08h-1.23V14.98z" class="st2"></path>
					<path d="M75.53,19.93v-5.84h-0.95v-0.94h0.95v-0.32c0-0.95,0.21-1.82,0.79-2.37c0.46-0.45,1.08-0.63,1.65-0.63
						c0.43,0,0.81,0.1,1.05,0.2l-0.17,0.95c-0.18-0.08-0.44-0.15-0.79-0.15c-1.05,0-1.32,0.93-1.32,1.96v0.36h1.64v0.94h-1.64v5.84
						H75.53z" class="st2"></path>
					<path d="M85.51,16.48c0,2.51-1.74,3.6-3.38,3.6c-1.84,0-3.25-1.35-3.25-3.49c0-2.27,1.49-3.6,3.36-3.6
						C84.2,12.99,85.51,14.41,85.51,16.48z M80.13,16.55c0,1.49,0.85,2.61,2.06,2.61c1.18,0,2.06-1.11,2.06-2.63
						c0-1.15-0.57-2.61-2.03-2.61S80.13,15.26,80.13,16.55z" class="st2"></path>
					<path d="M86.96,15.26c0-0.8-0.01-1.49-0.06-2.12h1.08l0.04,1.33h0.06c0.31-0.91,1.05-1.49,1.88-1.49
						c0.14,0,0.24,0.01,0.35,0.04v1.16c-0.13-0.03-0.25-0.04-0.42-0.04c-0.87,0-1.49,0.66-1.65,1.58c-0.03,0.17-0.06,0.36-0.06,0.57
						v3.62h-1.22V15.26z" class="st2"></path>
					<path d="M91.45,14.98c0-0.7-0.01-1.28-0.06-1.84h1.08l0.06,1.09h0.04c0.38-0.64,1.01-1.25,2.13-1.25
						c0.93,0,1.63,0.56,1.92,1.36h0.03c0.21-0.38,0.48-0.67,0.76-0.88c0.41-0.31,0.85-0.48,1.5-0.48c0.9,0,2.23,0.59,2.23,2.94v3.99
						h-1.21v-3.84c0-1.3-0.48-2.09-1.47-2.09c-0.7,0-1.25,0.52-1.46,1.12c-0.06,0.17-0.1,0.39-0.1,0.62v4.19H95.7v-4.06
						c0-1.08-0.48-1.86-1.42-1.86c-0.77,0-1.33,0.62-1.53,1.23c-0.07,0.18-0.1,0.39-0.1,0.6v4.09h-1.21V14.98z" class="st2"></path>
					<path d="M106.74,19.93l-0.1-0.85h-0.04c-0.38,0.53-1.11,1.01-2.07,1.01c-1.37,0-2.07-0.97-2.07-1.95
						c0-1.64,1.46-2.54,4.08-2.52v-0.14c0-0.56-0.15-1.57-1.54-1.57c-0.63,0-1.29,0.2-1.77,0.5l-0.28-0.81
						c0.56-0.36,1.37-0.6,2.23-0.6c2.07,0,2.58,1.42,2.58,2.78v2.54c0,0.59,0.03,1.16,0.11,1.63H106.74z M106.55,16.47
						c-1.35-0.03-2.87,0.21-2.87,1.53c0,0.8,0.53,1.18,1.16,1.18c0.88,0,1.44-0.56,1.64-1.14c0.04-0.13,0.07-0.27,0.07-0.39V16.47z" class="st2"></path>
					<path d="M110.99,11.2v1.95h1.77v0.94h-1.77v3.66c0,0.84,0.24,1.32,0.93,1.32c0.32,0,0.56-0.04,0.71-0.08l0.06,0.93
						c-0.24,0.1-0.62,0.17-1.09,0.17c-0.57,0-1.04-0.18-1.33-0.52c-0.35-0.36-0.48-0.97-0.48-1.77v-3.7h-1.05v-0.94h1.05v-1.63
						L110.99,11.2z" class="st2"></path>
					<path d="M115.32,11.24c0.01,0.42-0.29,0.76-0.78,0.76c-0.43,0-0.74-0.34-0.74-0.76c0-0.43,0.32-0.77,0.77-0.77
						C115.02,10.47,115.32,10.8,115.32,11.24z M113.94,19.93v-6.78h1.23v6.78H113.94z" class="st2"></path>
					<path d="M123.24,16.48c0,2.51-1.74,3.6-3.38,3.6c-1.84,0-3.25-1.35-3.25-3.49c0-2.27,1.49-3.6,3.36-3.6
						C121.92,12.99,123.24,14.41,123.24,16.48z M117.86,16.55c0,1.49,0.85,2.61,2.06,2.61c1.18,0,2.06-1.11,2.06-2.63
						c0-1.15-0.57-2.61-2.03-2.61S117.86,15.26,117.86,16.55z" class="st2"></path>
					<path d="M124.68,14.98c0-0.7-0.01-1.28-0.06-1.84h1.09l0.07,1.12h0.03c0.34-0.64,1.12-1.28,2.24-1.28
						c0.94,0,2.4,0.56,2.4,2.89v4.05h-1.23v-3.91c0-1.09-0.41-2-1.57-2c-0.81,0-1.44,0.57-1.65,1.26c-0.06,0.15-0.08,0.36-0.08,0.57
						v4.08h-1.23V14.98z" class="st2"></path>
					<path d="M137.27,11.52h-2.87v-1.04h6.99v1.04h-2.89v8.41h-1.23V11.52z" class="st2"></path>
					<path d="M142.03,16.76c0.03,1.67,1.09,2.35,2.33,2.35c0.88,0,1.42-0.15,1.88-0.35l0.21,0.88
						c-0.43,0.2-1.18,0.42-2.26,0.42c-2.09,0-3.34-1.37-3.34-3.42s1.21-3.66,3.18-3.66c2.21,0,2.8,1.95,2.8,3.2
						c0,0.25-0.03,0.45-0.04,0.57H142.03z M145.65,15.88c0.01-0.78-0.32-2-1.71-2c-1.25,0-1.79,1.15-1.89,2H145.65z" class="st2"></path>
					<path d="M153.19,19.68c-0.32,0.17-1.04,0.39-1.95,0.39c-2.05,0-3.38-1.39-3.38-3.46c0-2.09,1.43-3.6,3.64-3.6
						c0.73,0,1.37,0.18,1.71,0.35l-0.28,0.95c-0.29-0.17-0.76-0.32-1.43-0.32c-1.56,0-2.4,1.15-2.4,2.56c0,1.57,1.01,2.54,2.35,2.54
						c0.7,0,1.16-0.18,1.51-0.34L153.19,19.68z" class="st2"></path>
					<path d="M154.42,9.98h1.23v4.23h0.03c0.2-0.35,0.5-0.66,0.88-0.87c0.36-0.21,0.8-0.35,1.26-0.35
						c0.91,0,2.37,0.56,2.37,2.9v4.04h-1.23v-3.9c0-1.09-0.41-2.02-1.57-2.02c-0.8,0-1.43,0.56-1.65,1.23
						c-0.07,0.17-0.08,0.35-0.08,0.59v4.09h-1.23V9.98z" class="st2"></path>
					<path d="M162.01,14.98c0-0.7-0.01-1.28-0.06-1.84h1.09l0.07,1.12h0.03c0.34-0.64,1.12-1.28,2.24-1.28
						c0.94,0,2.4,0.56,2.4,2.89v4.05h-1.23v-3.91c0-1.09-0.41-2-1.57-2c-0.81,0-1.44,0.57-1.65,1.26c-0.06,0.15-0.08,0.36-0.08,0.57
						v4.08h-1.23V14.98z" class="st2"></path>
					<path d="M175.81,16.48c0,2.51-1.74,3.6-3.38,3.6c-1.84,0-3.25-1.35-3.25-3.49c0-2.27,1.49-3.6,3.36-3.6
						C174.49,12.99,175.81,14.41,175.81,16.48z M170.43,16.55c0,1.49,0.85,2.61,2.06,2.61c1.18,0,2.06-1.11,2.06-2.63
						c0-1.15-0.57-2.61-2.03-2.61C171.06,13.91,170.43,15.26,170.43,16.55z" class="st2"></path>
					<path d="M177.29,9.98h1.23v9.95h-1.23V9.98z" class="st2"></path>
					<path d="M186.63,16.48c0,2.51-1.74,3.6-3.38,3.6c-1.84,0-3.25-1.35-3.25-3.49c0-2.27,1.49-3.6,3.36-3.6
						C185.31,12.99,186.63,14.41,186.63,16.48z M181.24,16.55c0,1.49,0.85,2.61,2.06,2.61c1.18,0,2.06-1.11,2.06-2.63
						c0-1.15-0.57-2.61-2.03-2.61S181.24,15.26,181.24,16.55z" class="st2"></path>
					<path d="M194,13.14c-0.03,0.49-0.06,1.04-0.06,1.86v3.94c0,1.56-0.31,2.51-0.97,3.1
						c-0.66,0.62-1.61,0.81-2.47,0.81c-0.81,0-1.71-0.2-2.26-0.56l0.31-0.94c0.45,0.28,1.15,0.53,1.99,0.53
						c1.26,0,2.19-0.66,2.19-2.37v-0.76h-0.03c-0.38,0.63-1.11,1.14-2.16,1.14c-1.68,0-2.89-1.43-2.89-3.31c0-2.3,1.5-3.6,3.06-3.6
						c1.18,0,1.82,0.62,2.12,1.18h0.03l0.06-1.02H194z M192.72,15.82c0-0.21-0.01-0.39-0.07-0.56c-0.22-0.71-0.83-1.3-1.72-1.3
						c-1.18,0-2.02,0.99-2.02,2.56c0,1.33,0.67,2.44,2,2.44c0.76,0,1.44-0.48,1.71-1.26c0.07-0.21,0.1-0.45,0.1-0.66V15.82z" class="st2"></path>
					<path d="M196.39,13.14l1.49,4.01c0.15,0.45,0.32,0.98,0.43,1.39h0.03c0.13-0.41,0.27-0.93,0.43-1.42l1.35-3.98h1.3
						l-1.85,4.84c-0.88,2.33-1.49,3.52-2.33,4.25c-0.6,0.53-1.21,0.74-1.51,0.8l-0.31-1.04c0.31-0.1,0.71-0.29,1.08-0.6
						c0.34-0.27,0.76-0.74,1.04-1.37c0.06-0.13,0.1-0.22,0.1-0.29c0-0.07-0.03-0.17-0.08-0.32l-2.51-6.25H196.39z" class="st2"></path>
				</g>
			</g>
		</g>
	</g>
	<rect height="19.87" width="0.74" class="st2" y="0.08" x="53.38"></rect>
</g>
</svg>
