<svg xml:space="preserve" style="enable-background:new 0 0 412.61 47.34;" viewBox="0 0 412.61 47.34" y="0px" x="0px" xmlns:xlink="http://www.w3.org/1999/xlink" xmlns="http://www.w3.org/2000/svg" id="Layer_1" version="1.1">
<style type="text/css">
	.st0{fill:#034EA2;}
	.st1{fill:#ED1C24;}
	.st2{fill:#231F20;}
</style>
<g>
	<g>
		<g>
			<g>
				<polygon points="63.81,1.78 59.39,1.51 47.39,16.43 34.6,0 20.96,0 20.96,1.84 24.6,1.84 40.08,21.76 40.08,34.2 
					13.57,0 0,0 0,1.84 3.6,1.84 3.65,1.84 3.65,39.14 -0.03,39.14 -0.03,40.97 10.91,40.97 10.91,39.14 7.28,39.14 7.28,6.54 
					33.94,40.97 49.19,40.97 49.19,20" class="st0"></polygon>
				<path d="M86.64,11.9c0-9.32-10.25-11.8-17.51-11.9l0,0h-0.18c-0.1,0-0.19,0-0.29,0H54.27v1.84H68.3
					c2.57,0.26,5.72,1.76,7.55,4.46c1.03,1.51,1.69,3.33,1.66,5.64c-0.06,6.54-5.77,10.1-10.48,9.88h-8.72v0.36h-0.01v18.8h12.75
					v-1.83h-3.64V23.64C76.23,23.29,86.62,21.23,86.64,11.9z" class="st1"></path>
			</g>
		</g>
	</g>
	<g>
		<g>
			<g>
				<g>
					<path d="M130.24,11.53c0.74,0.46,1.83,0.84,2.97,0.84c1.69,0,2.68-0.89,2.68-2.19c0-1.2-0.69-1.88-2.42-2.55
						c-2.09-0.74-3.38-1.83-3.38-3.63c0-2,1.65-3.48,4.15-3.48c1.31,0,2.26,0.3,2.83,0.63l-0.46,1.35
						c-0.42-0.23-1.27-0.61-2.43-0.61c-1.75,0-2.42,1.05-2.42,1.92c0,1.2,0.78,1.79,2.55,2.47c2.17,0.84,3.27,1.88,3.27,3.77
						c0,1.98-1.47,3.69-4.49,3.69c-1.24,0-2.59-0.36-3.27-0.82L130.24,11.53z" class="st2"></path>
					<path d="M146.46,13.21c-0.44,0.23-1.41,0.53-2.64,0.53c-2.78,0-4.58-1.88-4.58-4.7c0-2.83,1.94-4.89,4.95-4.89
						c0.99,0,1.87,0.25,2.32,0.48l-0.38,1.29c-0.4-0.23-1.03-0.44-1.94-0.44c-2.11,0-3.25,1.56-3.25,3.48c0,2.13,1.37,3.44,3.2,3.44
						c0.95,0,1.58-0.25,2.05-0.46L146.46,13.21z" class="st2"></path>
					<path d="M148.36,0.04h1.67v5.75h0.04c0.27-0.48,0.69-0.89,1.2-1.18c0.5-0.29,1.09-0.48,1.71-0.48
						c1.24,0,3.21,0.76,3.21,3.94v5.48h-1.67V8.26c0-1.48-0.55-2.74-2.13-2.74c-1.08,0-1.94,0.76-2.24,1.67
						c-0.1,0.23-0.11,0.48-0.11,0.8v5.55h-1.67V0.04z" class="st2"></path>
					<path d="M167.32,8.87c0,3.4-2.36,4.89-4.58,4.89c-2.49,0-4.41-1.83-4.41-4.74c0-3.08,2.02-4.89,4.57-4.89
						C165.53,4.13,167.32,6.05,167.32,8.87z M160.01,8.96c0,2.02,1.16,3.54,2.8,3.54c1.6,0,2.8-1.5,2.8-3.58
						c0-1.56-0.78-3.54-2.76-3.54S160.01,7.21,160.01,8.96z" class="st2"></path>
					<path d="M177.95,8.87c0,3.4-2.36,4.89-4.58,4.89c-2.49,0-4.41-1.83-4.41-4.74c0-3.08,2.02-4.89,4.57-4.89
						C176.16,4.13,177.95,6.05,177.95,8.87z M170.65,8.96c0,2.02,1.16,3.54,2.8,3.54c1.6,0,2.8-1.5,2.8-3.58
						c0-1.56-0.78-3.54-2.76-3.54C171.5,5.39,170.65,7.21,170.65,8.96z" class="st2"></path>
					<path d="M180.18,0.04h1.67v13.51h-1.67V0.04z" class="st2"></path>
					<path d="M197.42,8.87c0,3.4-2.36,4.89-4.58,4.89c-2.49,0-4.41-1.83-4.41-4.74c0-3.08,2.02-4.89,4.57-4.89
						C195.63,4.13,197.42,6.05,197.42,8.87z M190.11,8.96c0,2.02,1.16,3.54,2.8,3.54c1.6,0,2.8-1.5,2.8-3.58
						c0-1.56-0.78-3.54-2.76-3.54S190.11,7.21,190.11,8.96z" class="st2"></path>
					<path d="M199.72,13.55V5.62h-1.29V4.34h1.29V3.9c0-1.29,0.29-2.47,1.07-3.21c0.63-0.61,1.46-0.86,2.24-0.86
						c0.59,0,1.1,0.13,1.43,0.27l-0.23,1.29c-0.25-0.11-0.59-0.21-1.06-0.21c-1.43,0-1.79,1.26-1.79,2.66v0.49h2.23v1.27h-2.23v7.93
						H199.72z" class="st2"></path>
					<path d="M132.97,21.46v19.49h-2.52V21.46H132.97z" class="st2"></path>
					<path d="M136.95,30.74c0-1.45-0.03-2.63-0.12-3.79h2.26l0.14,2.31h0.06c0.69-1.33,2.31-2.63,4.63-2.63
						c1.94,0,4.95,1.16,4.95,5.96v8.36h-2.54v-8.07c0-2.26-0.84-4.13-3.24-4.13c-1.68,0-2.98,1.19-3.41,2.6
						c-0.12,0.32-0.17,0.75-0.17,1.19v8.41h-2.54V30.74z" class="st2"></path>
					<path d="M152.88,40.95V28.89h-1.97v-1.94h1.97v-0.66c0-1.97,0.43-3.76,1.62-4.89c0.95-0.93,2.23-1.3,3.41-1.3
						c0.9,0,1.68,0.2,2.17,0.4l-0.35,1.97c-0.38-0.17-0.9-0.32-1.62-0.32c-2.17,0-2.72,1.91-2.72,4.05v0.75h3.38v1.94h-3.38v12.06
						H152.88z" class="st2"></path>
					<path d="M173.47,33.83c0,5.18-3.59,7.43-6.97,7.43c-3.79,0-6.71-2.78-6.71-7.2c0-4.68,3.07-7.43,6.94-7.43
						C170.75,26.63,173.47,29.55,173.47,33.83z M162.36,33.98c0,3.07,1.76,5.38,4.25,5.38c2.43,0,4.25-2.28,4.25-5.44
						c0-2.37-1.19-5.38-4.19-5.38C163.66,28.54,162.36,31.32,162.36,33.98z" class="st2"></path>
					<path d="M176.45,31.32c0-1.65-0.03-3.07-0.12-4.37h2.23l0.09,2.75h0.11c0.64-1.88,2.17-3.07,3.88-3.07
						c0.29,0,0.49,0.03,0.72,0.09v2.4c-0.26-0.06-0.52-0.09-0.87-0.09c-1.79,0-3.07,1.36-3.41,3.27c-0.06,0.35-0.12,0.75-0.12,1.19
						v7.46h-2.52V31.32z" class="st2"></path>
					<path d="M185.72,30.74c0-1.45-0.03-2.63-0.12-3.79h2.23l0.12,2.26h0.09c0.78-1.33,2.08-2.57,4.4-2.57
						c1.91,0,3.35,1.16,3.96,2.8h0.06c0.43-0.78,0.98-1.39,1.56-1.82c0.84-0.64,1.76-0.98,3.09-0.98c1.85,0,4.6,1.21,4.6,6.07v8.24
						h-2.49v-7.92c0-2.69-0.98-4.31-3.04-4.31c-1.45,0-2.57,1.07-3.01,2.31c-0.12,0.35-0.2,0.81-0.2,1.27v8.65h-2.49v-8.39
						c0-2.23-0.98-3.85-2.92-3.85c-1.59,0-2.75,1.27-3.15,2.54c-0.14,0.38-0.2,0.81-0.2,1.24v8.44h-2.49V30.74z" class="st2"></path>
					<path d="M217.25,40.95l-0.2-1.76h-0.09c-0.78,1.1-2.28,2.08-4.28,2.08c-2.83,0-4.28-2-4.28-4.02
						c0-3.38,3.01-5.23,8.41-5.2v-0.29c0-1.16-0.32-3.24-3.18-3.24c-1.3,0-2.66,0.41-3.64,1.04l-0.58-1.68
						c1.16-0.75,2.83-1.24,4.6-1.24c4.28,0,5.32,2.92,5.32,5.73v5.23c0,1.21,0.06,2.4,0.23,3.35H217.25z M216.88,33.8
						c-2.78-0.06-5.93,0.43-5.93,3.15c0,1.65,1.1,2.43,2.4,2.43c1.82,0,2.98-1.16,3.38-2.34c0.09-0.26,0.15-0.55,0.15-0.81V33.8z" class="st2"></path>
					<path d="M226.03,22.93v4.02h3.64v1.94h-3.64v7.55c0,1.73,0.49,2.72,1.91,2.72c0.66,0,1.16-0.09,1.47-0.17
						l0.12,1.91c-0.49,0.2-1.27,0.35-2.26,0.35c-1.19,0-2.14-0.38-2.75-1.07c-0.72-0.75-0.98-2-0.98-3.64v-7.63h-2.17v-1.94h2.17
						V23.6L226.03,22.93z" class="st2"></path>
					<path d="M234.96,23.02c0.03,0.87-0.61,1.56-1.62,1.56c-0.9,0-1.53-0.69-1.53-1.56c0-0.9,0.67-1.59,1.59-1.59
						C234.35,21.43,234.96,22.12,234.96,23.02z M232.12,40.95v-14h2.54v14H232.12z" class="st2"></path>
					<path d="M251.3,33.83c0,5.18-3.59,7.43-6.97,7.43c-3.79,0-6.71-2.78-6.71-7.2c0-4.68,3.07-7.43,6.94-7.43
						C248.58,26.63,251.3,29.55,251.3,33.83z M240.19,33.98c0,3.07,1.76,5.38,4.25,5.38c2.43,0,4.25-2.28,4.25-5.44
						c0-2.37-1.19-5.38-4.19-5.38S240.19,31.32,240.19,33.98z" class="st2"></path>
					<path d="M254.28,30.74c0-1.45-0.03-2.63-0.12-3.79h2.26l0.14,2.31h0.06c0.69-1.33,2.31-2.63,4.63-2.63
						c1.94,0,4.95,1.16,4.95,5.96v8.36h-2.54v-8.07c0-2.26-0.84-4.13-3.24-4.13c-1.68,0-2.98,1.19-3.41,2.6
						c-0.12,0.32-0.17,0.75-0.17,1.19v8.41h-2.54V30.74z" class="st2"></path>
					<path d="M280.25,23.6h-5.93v-2.14h14.43v2.14h-5.96v17.35h-2.54V23.6z" class="st2"></path>
					<path d="M290.07,34.41c0.06,3.44,2.26,4.86,4.8,4.86c1.82,0,2.92-0.32,3.88-0.72l0.43,1.82
						c-0.9,0.41-2.43,0.87-4.66,0.87c-4.31,0-6.88-2.83-6.88-7.06s2.49-7.55,6.56-7.55c4.57,0,5.78,4.02,5.78,6.59
						c0,0.52-0.06,0.93-0.09,1.19H290.07z M297.53,32.59c0.03-1.62-0.66-4.14-3.53-4.14c-2.57,0-3.7,2.37-3.9,4.14H297.53z" class="st2"></path>
					<path d="M313.09,40.43c-0.66,0.35-2.14,0.81-4.02,0.81c-4.22,0-6.97-2.86-6.97-7.14c0-4.31,2.95-7.43,7.52-7.43
						c1.5,0,2.83,0.38,3.53,0.72l-0.58,1.97c-0.61-0.35-1.56-0.67-2.95-0.67c-3.21,0-4.94,2.37-4.94,5.29
						c0,3.24,2.08,5.23,4.86,5.23c1.44,0,2.4-0.38,3.12-0.69L313.09,40.43z" class="st2"></path>
					<path d="M315.63,20.42h2.54v8.73h0.06c0.4-0.72,1.04-1.36,1.82-1.79c0.75-0.43,1.65-0.72,2.6-0.72
						c1.88,0,4.89,1.16,4.89,5.99v8.33H325v-8.04c0-2.26-0.84-4.16-3.24-4.16c-1.65,0-2.95,1.16-3.41,2.54
						c-0.15,0.35-0.17,0.72-0.17,1.21v8.44h-2.54V20.42z" class="st2"></path>
					<path d="M331.29,30.74c0-1.45-0.03-2.63-0.12-3.79h2.26l0.14,2.31h0.06c0.69-1.33,2.31-2.63,4.63-2.63
						c1.94,0,4.95,1.16,4.95,5.96v8.36h-2.54v-8.07c0-2.26-0.84-4.13-3.24-4.13c-1.68,0-2.98,1.19-3.41,2.6
						c-0.12,0.32-0.17,0.75-0.17,1.19v8.41h-2.54V30.74z" class="st2"></path>
					<path d="M359.77,33.83c0,5.18-3.59,7.43-6.97,7.43c-3.79,0-6.71-2.78-6.71-7.2c0-4.68,3.07-7.43,6.94-7.43
						C357.05,26.63,359.77,29.55,359.77,33.83z M348.66,33.98c0,3.07,1.76,5.38,4.25,5.38c2.43,0,4.25-2.28,4.25-5.44
						c0-2.37-1.19-5.38-4.19-5.38C349.96,28.54,348.66,31.32,348.66,33.98z" class="st2"></path>
					<path d="M362.81,20.42h2.54v20.53h-2.54V20.42z" class="st2"></path>
					<path d="M382.08,33.83c0,5.18-3.59,7.43-6.97,7.43c-3.79,0-6.71-2.78-6.71-7.2c0-4.68,3.07-7.43,6.94-7.43
						C379.36,26.63,382.08,29.55,382.08,33.83z M370.98,33.98c0,3.07,1.76,5.38,4.25,5.38c2.43,0,4.25-2.28,4.25-5.44
						c0-2.37-1.19-5.38-4.19-5.38C372.28,28.54,370.98,31.32,370.98,33.98z" class="st2"></path>
					<path d="M397.29,26.95c-0.06,1.01-0.12,2.14-0.12,3.85v8.13c0,3.21-0.64,5.18-1.99,6.39
						c-1.36,1.27-3.33,1.68-5.09,1.68c-1.68,0-3.53-0.4-4.66-1.16l0.64-1.94c0.93,0.58,2.37,1.1,4.11,1.1c2.6,0,4.51-1.36,4.51-4.89
						v-1.56h-0.06c-0.78,1.3-2.28,2.34-4.45,2.34c-3.47,0-5.96-2.95-5.96-6.82c0-4.74,3.09-7.43,6.3-7.43
						c2.43,0,3.76,1.27,4.37,2.43h0.06l0.12-2.11H397.29z M394.66,32.47c0-0.43-0.03-0.81-0.14-1.16c-0.46-1.47-1.71-2.69-3.56-2.69
						c-2.43,0-4.16,2.05-4.16,5.29c0,2.75,1.39,5.03,4.13,5.03c1.56,0,2.98-0.98,3.53-2.6c0.14-0.43,0.2-0.93,0.2-1.36V32.47z" class="st2"></path>
					<path d="M402.23,26.95l3.07,8.27c0.32,0.93,0.66,2.02,0.9,2.86h0.06c0.26-0.84,0.55-1.91,0.9-2.92l2.78-8.21h2.69
						l-3.82,9.98c-1.82,4.8-3.07,7.26-4.8,8.76c-1.24,1.1-2.49,1.53-3.12,1.65l-0.64-2.14c0.64-0.2,1.47-0.61,2.23-1.24
						c0.69-0.55,1.56-1.53,2.14-2.83c0.12-0.26,0.2-0.46,0.2-0.61c0-0.14-0.06-0.35-0.17-0.66l-5.18-12.9H402.23z" class="st2"></path>
				</g>
			</g>
		</g>
	</g>
	<rect height="40.99" width="1.52" class="st2" y="0" x="107.17"></rect>
</g>
</svg>
